# Blender v2.79 (sub 0) OBJ File: 'house.blend'
# www.blender.org
mtllib house.mtl
o Plane
v -3.404271 -3.135884 2.823759
v 3.404271 -3.135884 2.823759
v -3.404271 7.184904 2.823759
v -3.404271 4.217158 2.823760
v -0.000000 -3.135884 2.823759
v 3.404271 4.217158 2.823760
v -3.404271 -3.135884 -3.167672
v 3.404271 -3.135884 -3.167672
v -3.404271 7.184904 -3.167672
v -3.404271 4.217158 -3.167672
v -0.000000 -3.135884 -3.167672
v 3.404271 4.217158 -3.167672
vt 0.452056 0.321797
vt 0.452056 0.000237
vt 0.677728 0.000237
vt 0.903400 0.000237
vt 0.903400 0.321797
vt 0.452056 0.451581
vt 0.451581 0.321797
vt 0.451581 0.451581
vt 0.000237 0.321797
vt 0.000237 0.000237
vt 0.225909 0.000237
vt 0.451581 0.000237
vt 0.732834 0.773616
vt 0.732834 0.452056
vt 0.994849 0.452056
vt 0.994849 0.773616
vt 0.732360 0.773616
vt 0.732360 0.903400
vt 0.470345 0.903400
vt 0.470345 0.773616
vt 0.732360 0.452056
vt 0.470345 0.452056
vt 0.000237 0.452056
vt 0.469870 0.452056
vt 0.469870 0.714071
vt 0.000237 0.714071
vt 0.000237 0.940217
vt 0.000237 0.714545
vt 0.262252 0.714545
vt 0.262252 0.940217
vt 0.732834 0.999763
vt 0.732834 0.774091
vt 0.994849 0.774091
vt 0.994849 0.999763
vn 0.0000 -0.0000 1.0000
vn 0.0000 0.0000 -1.0000
vn 1.0000 0.0000 0.0000
vn -1.0000 0.0000 0.0000
vn 0.3996 0.9167 0.0000
vn 0.0000 -1.0000 0.0000
usemtl None
s off
f 4/1/1 1/2/1 5/3/1 2/4/1 6/5/1 3/6/1
f 10/7/2 9/8/2 12/9/2 8/10/2 11/11/2 7/12/2
f 6/13/3 2/14/3 8/15/3 12/16/3
f 4/17/4 3/18/4 9/19/4 10/20/4
f 1/21/4 4/17/4 10/20/4 7/22/4
f 3/23/5 6/24/5 12/25/5 9/26/5
f 5/27/6 1/28/6 7/29/6 11/30/6
f 2/31/6 5/32/6 11/33/6 8/34/6
